<?xml version="1.0" encoding="UTF-8" standalone="no"?>
<svg
   id="Ebene_2"
   viewBox="0 0 260.00001 260"
   version="1.1"
   sodipodi:docname="pandict_icon_black.svg"
   inkscape:version="1.2 (dc2aedaf03, 2022-05-15)"
   width="260"
   height="260"
   inkscape:export-filename="pandict_icon_black.png"
   inkscape:export-xdpi="96"
   inkscape:export-ydpi="96"
   xmlns:inkscape="http://www.inkscape.org/namespaces/inkscape"
   xmlns:sodipodi="http://sodipodi.sourceforge.net/DTD/sodipodi-0.dtd"
   xmlns="http://www.w3.org/2000/svg"
   xmlns:svg="http://www.w3.org/2000/svg">
  <sodipodi:namedview
     id="namedview72"
     pagecolor="#ffffff"
     bordercolor="#000000"
     borderopacity="0.25"
     inkscape:showpageshadow="2"
     inkscape:pageopacity="0.0"
     inkscape:pagecheckerboard="0"
     inkscape:deskcolor="#d1d1d1"
     showgrid="false"
     inkscape:zoom="1.8800287"
     inkscape:cx="136.16813"
     inkscape:cy="105.31754"
     inkscape:window-width="1680"
     inkscape:window-height="979"
     inkscape:window-x="-8"
     inkscape:window-y="-8"
     inkscape:window-maximized="1"
     inkscape:current-layer="Ebene_2" />
  <defs
     id="defs40">
    <style
       id="style38">
      .cls-1 {
        fill: #1d1d1b;
      }

      .cls-2 {
        fill: none;
        fill-rule: evenodd;
      }
    </style>
  </defs>
  <g
     id="g346"
     transform="matrix(1.6345776,0,0,1.6345776,9.0451265,32.446314)">
    <path
       class="cls-2"
       d="m 147.49,59.690065 c 0,32.23 -26.13,58.350005 -58.35,58.350005 -32.22,0 -58.35,-26.130005 -58.35,-58.350005 0,-32.22 26.12,-58.3499996 58.35,-58.3499996 32.23,0 58.35,26.1299996 58.35,58.3499996 z"
       id="path42" />
    <g
       id="g48"
       transform="translate(-1.54,6.5369953e-5)">
      <path
         class="cls-1"
         d="M 92.14,0 C 68.32,-0.03 56.08,10.27 45.53,22.32 c 0,0 12.72,-4.5 25.96,-2.8 -1.72,0.03 -9.31,-0.4 -26.25,10.28 l 8.45,8.06 C 60.1,26.71 68.57,21.25 70.82,20.25 c 0.96,-0.2 1.97,-0.36 3.08,-0.48 -4.54,5.45 -6.72,13.8 -5.35,15.72 0.54,0.75 1.43,1 2.56,0.91 2.46,-0.19 6.07,-1.96 9.77,-3.6 3.93,-1.74 10.2,1.16 9.24,-7.39 -0.19,-1.69 -0.52,-3.22 -0.98,-4.57 -0.95,-2.77 -2.44,-4.74 -4.42,-5.57 2.98,0.07 5.19,2.31 6.44,5.93 5.6,1 10.71,2.17 15.22,3.8 0.43,0.18 1.32,0.53 2.37,0.96 0.37,0.15 0.76,0.31 1.16,0.48 1.73,0.73 3.58,1.55 4.51,2.1 1.99,1.19 5.01,3.31 5.01,3.31 0,0 7.53,-4.34 -0.56,-14.94 -0.06,-0.07 -0.11,-0.13 -0.17,-0.2 0.72,0.46 1.46,1.15 2.24,2.16 8.09,10.61 -0.19,15.5 -0.19,15.5 0,0 -0.11,-0.1 -0.29,-0.27 1.1,1.29 2.1,2.71 2.98,4.28 6.79,12.15 5.43,16.77 5.24,22.18 v 0 c -0.4,-4.31 -0.48,-8.07 -1.8,-6.52 -1.32,1.55 -1.33,4.21 -0.55,8.37 0.86,-0.03 1.73,1.25 1.99,2.96 0.21,1.41 -0.07,2.66 -0.63,3.18 1.04,4.35 1.46,5.39 2.59,5.63 0.03,0 0.05,-0.01 0.08,0 1.21,4.62 2.62,7.71 2.62,7.71 0,0 0.03,0.04 0.07,0.12 -0.23,-0.13 -0.67,-0.06 -1.44,0.37 -2.72,1.53 -2.85,0.82 -5.53,0 -2.68,-0.83 -5.64,-1.54 -6.02,0.49 -0.6,3.16 2.8,3.13 4.79,4.3 1.99,1.19 -1.22,3.54 -1.22,3.54 l -4.3,1.86 c -4.29,1.87 -10.26,-3.44 -10.26,-3.44 0,0 0.53,2.13 4.3,4.95 3.76,2.82 10.83,-0.98 10.83,-0.98 0,0 1.33,1 2.5,0.53 0.7,-0.28 2.11,-1.06 2.11,-1.06 0,0 -1.96,-0.42 -2.35,-0.5 -0.39,-0.08 1.37,-3.75 1.37,-3.75 0,0 1.46,-0.58 3.46,-2.68 1.01,-1.07 1.77,-2.28 1.92,-3.02 0.17,1.2 -0.19,4.06 -4.4,9.96 -8.62,12.07 -19.29,6.71 -21.7,4.8 0,0 2.43,6.84 1.99,15.15 20.87,-5.09 39.92,-26.99 39.96,-54.85 C 149.07,27.66 124.03,0.04 92.14,0 Z"
         id="path44" />
      <path
         class="cls-1"
         d="m 114.35,61.2 c -1.92,-6.73 -10.91,-5.97 -12.67,-0.93 -2.72,7.76 -1.6,12.86 0.04,15.17 2.83,3.99 6.87,2.48 8.39,-0.49 1.51,-2.96 6.17,-7.02 4.24,-13.76 z m -5.99,7.14 c -1.34,-0.29 -2.13,-1.93 -1.76,-3.69 0.37,-1.74 1.76,-2.93 3.1,-2.64 1.35,0.28 2.13,1.93 1.76,3.68 -0.37,1.75 -1.76,2.93 -3.11,2.65 z"
         id="path46" />
    </g>
    <path
       class="cls-1"
       d="m 92.16,115.88007 c 2.01,0.05 4.45,-0.52 7.24,-0.78 1.35,-4.54 1.91,-12.52 1.98,-15.840005 l 1.53,-1.14 c 0,0 -5.57,-0.1 -11.21,-2.56 -0.46,-0.2 -1.42,0.55 -4.16,-0.15 1.13,3.01 3.08,11.940005 3.58,14.280005 l 1.04,6.18 z"
       id="path50" />
    <g
       id="g64"
       transform="translate(-1.54,6.5369953e-5)">
      <path
         class="cls-1"
         d="m 11.59,53.09 h 7.36 v 27.62 h -7.36 z"
         id="path52" />
      <path
         class="cls-1"
         d="m 28.64,66.9 c 0,-2.22 0.3,-4.21 0.89,-5.97 0.59,-1.77 1.47,-3.26 2.63,-4.49 1.16,-1.23 2.6,-2.17 4.33,-2.83 1.73,-0.66 3.72,-0.99 5.99,-0.99 2.27,0 4.27,0.33 5.99,0.99 1.72,0.66 3.17,1.6 4.33,2.83 1.16,1.23 2.04,2.72 2.63,4.49 0.59,1.77 0.89,3.76 0.89,5.97 0,2.21 -0.3,4.17 -0.89,5.93 -0.59,1.77 -1.48,3.27 -2.65,4.51 -1.17,1.24 -2.62,2.19 -4.35,2.85 -1.73,0.66 -3.71,0.99 -5.95,0.99 -2.24,0 -4.26,-0.33 -5.97,-0.99 C 34.8,79.53 33.35,78.58 32.18,77.34 31.01,76.1 30.12,74.6 29.53,72.83 28.94,71.06 28.64,69.08 28.64,66.9 Z m 7.6,0 c 0,1.13 0.12,2.24 0.36,3.3 0.24,1.07 0.61,2.01 1.11,2.83 0.5,0.82 1.15,1.47 1.94,1.96 0.79,0.49 1.74,0.73 2.85,0.73 1.11,0 2.06,-0.24 2.85,-0.73 0.79,-0.49 1.44,-1.14 1.94,-1.96 0.5,-0.82 0.87,-1.76 1.11,-2.83 0.24,-1.07 0.36,-2.17 0.36,-3.3 0,-1.13 -0.12,-2.31 -0.36,-3.38 -0.24,-1.07 -0.61,-2 -1.11,-2.81 -0.5,-0.8 -1.15,-1.44 -1.94,-1.92 -0.79,-0.47 -1.74,-0.71 -2.85,-0.71 -1.11,0 -2.06,0.24 -2.85,0.71 -0.79,0.48 -1.44,1.12 -1.94,1.92 -0.5,0.8 -0.87,1.74 -1.11,2.81 -0.24,1.07 -0.36,2.2 -0.36,3.38 z"
         id="path54" />
      <path
         class="cls-1"
         d="m 66.03,53.09 h 7.36 v 27.62 h -7.36 z"
         id="path56" />
      <path
         class="cls-1"
         d="m 1.54,101.83 c 0,-2.22 0.3,-4.21 0.89,-5.97 0.59,-1.77 1.47,-3.26 2.63,-4.49 1.16,-1.23 2.6,-2.17 4.33,-2.83 1.73,-0.66 3.72,-0.99 5.99,-0.99 2.27,0 4.27,0.33 5.99,0.99 1.72,0.66 3.17,1.6 4.33,2.83 1.16,1.23 2.04,2.72 2.63,4.49 0.59,1.77 0.89,3.76 0.89,5.97 0,2.21 -0.3,4.17 -0.89,5.93 -0.59,1.77 -1.48,3.27 -2.65,4.51 -1.17,1.24 -2.62,2.19 -4.35,2.85 -1.73,0.66 -3.71,0.99 -5.95,0.99 -2.24,0 -4.26,-0.33 -5.97,-0.99 -1.71,-0.66 -3.16,-1.61 -4.33,-2.85 -1.17,-1.24 -2.06,-2.74 -2.65,-4.51 -0.59,-1.77 -0.89,-3.75 -0.89,-5.93 z m 7.6,0 c 0,1.13 0.12,2.24 0.36,3.3 0.24,1.07 0.61,2.01 1.11,2.83 0.5,0.82 1.15,1.47 1.94,1.96 0.79,0.49 1.74,0.73 2.85,0.73 1.11,0 2.06,-0.24 2.85,-0.73 0.79,-0.49 1.44,-1.14 1.94,-1.96 0.5,-0.82 0.87,-1.76 1.11,-2.83 0.24,-1.07 0.36,-2.17 0.36,-3.3 0,-1.13 -0.12,-2.31 -0.36,-3.38 -0.24,-1.07 -0.61,-2 -1.11,-2.81 -0.5,-0.8 -1.15,-1.44 -1.94,-1.92 -0.79,-0.47 -1.74,-0.71 -2.85,-0.71 -1.11,0 -2.06,0.24 -2.85,0.71 -0.79,0.48 -1.44,1.12 -1.94,1.92 -0.5,0.8 -0.87,1.74 -1.11,2.81 -0.24,1.07 -0.36,2.2 -0.36,3.38 z"
         id="path58" />
      <path
         class="cls-1"
         d="m 38.93,88.03 h 7.36 v 27.62 h -7.36 z"
         id="path60" />
      <path
         class="cls-1"
         d="m 55.98,101.83 c 0,-2.22 0.3,-4.21 0.89,-5.97 0.59,-1.77 1.47,-3.26 2.63,-4.49 1.16,-1.23 2.6,-2.17 4.33,-2.83 1.73,-0.66 3.72,-0.99 5.99,-0.99 2.27,0 4.27,0.33 5.99,0.99 1.72,0.66 3.17,1.6 4.33,2.83 1.16,1.23 2.04,2.72 2.63,4.49 0.59,1.77 0.89,3.76 0.89,5.97 0,2.21 -0.3,4.17 -0.89,5.93 -0.59,1.77 -1.48,3.27 -2.65,4.51 -1.17,1.24 -2.62,2.19 -4.35,2.85 -1.73,0.66 -3.71,0.99 -5.95,0.99 -2.24,0 -4.26,-0.33 -5.97,-0.99 -1.71,-0.66 -3.16,-1.61 -4.33,-2.85 -1.17,-1.24 -2.06,-2.74 -2.65,-4.51 -0.59,-1.77 -0.89,-3.75 -0.89,-5.93 z m 7.6,0 c 0,1.13 0.12,2.24 0.36,3.3 0.24,1.07 0.61,2.01 1.11,2.83 0.5,0.82 1.15,1.47 1.94,1.96 0.79,0.49 1.74,0.73 2.85,0.73 1.11,0 2.06,-0.24 2.85,-0.73 0.79,-0.49 1.44,-1.14 1.94,-1.96 0.5,-0.82 0.87,-1.76 1.11,-2.83 0.24,-1.07 0.36,-2.17 0.36,-3.3 0,-1.13 -0.12,-2.31 -0.36,-3.38 -0.24,-1.07 -0.61,-2 -1.11,-2.81 -0.5,-0.8 -1.15,-1.44 -1.94,-1.92 -0.79,-0.47 -1.74,-0.71 -2.85,-0.71 -1.11,0 -2.06,0.24 -2.85,0.71 -0.79,0.48 -1.44,1.12 -1.94,1.92 -0.5,0.8 -0.87,1.74 -1.11,2.81 -0.24,1.07 -0.36,2.2 -0.36,3.38 z"
         id="path62" />
    </g>
  </g>
</svg>
