<?xml version="1.0" encoding="UTF-8" standalone="no"?>
<svg
   width="173.29443pt"
   height="45.043365pt"
   viewBox="0 0 61.134427 15.890298"
   version="1.1"
   id="pandapower-logo"
   sodipodi:docname="pict_.svg"
   inkscape:version="1.3 (0e150ed6c4, 2023-07-21)"
   xmlns:inkscape="http://www.inkscape.org/namespaces/inkscape"
   xmlns:sodipodi="http://sodipodi.sourceforge.net/DTD/sodipodi-0.dtd"
   xmlns="http://www.w3.org/2000/svg"
   xmlns:svg="http://www.w3.org/2000/svg">
  <sodipodi:namedview
     id="namedview1"
     pagecolor="#ffffff"
     bordercolor="#000000"
     borderopacity="0.25"
     inkscape:showpageshadow="2"
     inkscape:pageopacity="0.0"
     inkscape:pagecheckerboard="0"
     inkscape:deskcolor="#d1d1d1"
     inkscape:document-units="pt"
     inkscape:zoom="3.7825797"
     inkscape:cx="95.173144"
     inkscape:cy="35.557744"
     inkscape:window-width="1904"
     inkscape:window-height="993"
     inkscape:window-x="-7"
     inkscape:window-y="0"
     inkscape:window-maximized="0"
     inkscape:current-layer="pandapower-logo" />
  <defs
     id="defs" />
  <style
     id="styles">&#10;    .filled {&#10;      fill: #110f0d;&#10;      fill-opacity: 1;&#10;      fill-rule: nonzero;&#10;      stroke: none;&#10;    }&#10;  </style>
  <g
     id="Ebene_1-2"
     data-name="Ebene_1"
     transform="matrix(0.11116024,0,0,0.11116024,0.29817549,1.617657)">
    <path
       class="cls-2"
       d="m 149.03,59.69 c 0,32.23 -26.13,58.35 -58.35,58.35 -32.22,0 -58.35,-26.13 -58.35,-58.35 0,-32.22 26.12,-58.35 58.35,-58.35 32.23,0 58.35,26.13 58.35,58.35 z"
       id="path1"
       style="fill:none;fill-rule:evenodd" />
    <g
       id="g3">
      <path
         class="cls-1"
         d="M 92.14,0 C 68.32,-0.03 56.08,10.27 45.53,22.32 c 0,0 12.72,-4.5 25.96,-2.8 -1.72,0.03 -9.31,-0.4 -26.25,10.28 l 8.45,8.06 C 60.1,26.71 68.57,21.25 70.82,20.25 c 0.96,-0.2 1.97,-0.36 3.08,-0.48 -4.54,5.45 -6.72,13.8 -5.35,15.72 0.54,0.75 1.43,1 2.56,0.91 2.46,-0.19 6.07,-1.96 9.77,-3.6 3.93,-1.74 10.2,1.16 9.24,-7.39 -0.19,-1.69 -0.52,-3.22 -0.98,-4.57 -0.95,-2.77 -2.44,-4.74 -4.42,-5.57 2.98,0.07 5.19,2.31 6.44,5.93 5.6,1 10.71,2.17 15.22,3.8 0.43,0.18 1.32,0.53 2.37,0.96 0.37,0.15 0.76,0.31 1.16,0.48 1.73,0.73 3.58,1.55 4.51,2.1 1.99,1.19 5.01,3.31 5.01,3.31 0,0 7.53,-4.34 -0.56,-14.94 -0.06,-0.07 -0.11,-0.13 -0.17,-0.2 0.72,0.46 1.46,1.15 2.24,2.16 8.09,10.61 -0.19,15.5 -0.19,15.5 0,0 -0.11,-0.1 -0.29,-0.27 1.1,1.29 2.1,2.71 2.98,4.28 6.79,12.15 5.43,16.77 5.24,22.18 v 0 c -0.4,-4.31 -0.48,-8.07 -1.8,-6.52 -1.32,1.55 -1.33,4.21 -0.55,8.37 0.86,-0.03 1.73,1.25 1.99,2.96 0.21,1.41 -0.07,2.66 -0.63,3.18 1.04,4.35 1.46,5.39 2.59,5.63 0.03,0 0.05,-0.01 0.08,0 1.21,4.62 2.62,7.71 2.62,7.71 0,0 0.03,0.04 0.07,0.12 -0.23,-0.13 -0.67,-0.06 -1.44,0.37 -2.72,1.53 -2.85,0.82 -5.53,0 -2.68,-0.83 -5.64,-1.54 -6.02,0.49 -0.6,3.16 2.8,3.13 4.79,4.3 1.99,1.19 -1.22,3.54 -1.22,3.54 l -4.3,1.86 c -4.29,1.87 -10.26,-3.44 -10.26,-3.44 0,0 0.53,2.13 4.3,4.95 3.76,2.82 10.83,-0.98 10.83,-0.98 0,0 1.33,1 2.5,0.53 0.7,-0.28 2.11,-1.06 2.11,-1.06 0,0 -1.96,-0.42 -2.35,-0.5 -0.39,-0.08 1.37,-3.75 1.37,-3.75 0,0 1.46,-0.58 3.46,-2.68 1.01,-1.07 1.77,-2.28 1.92,-3.02 0.17,1.2 -0.19,4.06 -4.4,9.96 -8.62,12.07 -19.29,6.71 -21.7,4.8 0,0 2.43,6.84 1.99,15.15 20.87,-5.09 39.92,-26.99 39.96,-54.85 C 149.07,27.66 124.03,0.04 92.14,0 Z"
         id="path2"
         style="fill:#1d1d1b" />
      <path
         class="cls-1"
         d="m 114.35,61.2 c -1.92,-6.73 -10.91,-5.97 -12.67,-0.93 -2.72,7.76 -1.6,12.86 0.04,15.17 2.83,3.99 6.87,2.48 8.39,-0.49 1.51,-2.96 6.17,-7.02 4.24,-13.76 z m -5.99,7.14 c -1.34,-0.29 -2.13,-1.93 -1.76,-3.69 0.37,-1.74 1.76,-2.93 3.1,-2.64 1.35,0.28 2.13,1.93 1.76,3.68 -0.37,1.75 -1.76,2.93 -3.11,2.65 z"
         id="path3"
         style="fill:#1d1d1b" />
    </g>
    <path
       class="cls-1"
       d="m 93.7,115.88 c 2.01,0.05 4.45,-0.52 7.24,-0.78 1.35,-4.54 1.91,-12.52 1.98,-15.84 l 1.53,-1.14 c 0,0 -5.57,-0.1 -11.21,-2.56 -0.46,-0.2 -1.42,0.55 -4.16,-0.15 1.13,3.01 3.08,11.94 3.58,14.28 l 1.04,6.18 z"
       id="path4"
       style="fill:#1d1d1b" />
    <g
       id="g10">
      <path
         class="cls-1"
         d="m 11.59,53.09 h 7.36 v 27.62 h -7.36 z"
         id="path5"
         style="fill:#1d1d1b" />
      <path
         class="cls-1"
         d="m 28.64,66.9 c 0,-2.22 0.3,-4.21 0.89,-5.97 0.59,-1.77 1.47,-3.26 2.63,-4.49 1.16,-1.23 2.6,-2.17 4.33,-2.83 1.73,-0.66 3.72,-0.99 5.99,-0.99 2.27,0 4.27,0.33 5.99,0.99 1.72,0.66 3.17,1.6 4.33,2.83 1.16,1.23 2.04,2.72 2.63,4.49 0.59,1.77 0.89,3.76 0.89,5.97 0,2.21 -0.3,4.17 -0.89,5.93 -0.59,1.77 -1.48,3.27 -2.65,4.51 -1.17,1.24 -2.62,2.19 -4.35,2.85 -1.73,0.66 -3.71,0.99 -5.95,0.99 -2.24,0 -4.26,-0.33 -5.97,-0.99 C 34.8,79.53 33.35,78.58 32.18,77.34 31.01,76.1 30.12,74.6 29.53,72.83 28.94,71.06 28.64,69.08 28.64,66.9 Z m 7.6,0 c 0,1.13 0.12,2.24 0.36,3.3 0.24,1.07 0.61,2.01 1.11,2.83 0.5,0.82 1.15,1.47 1.94,1.96 0.79,0.49 1.74,0.73 2.85,0.73 1.11,0 2.06,-0.24 2.85,-0.73 0.79,-0.49 1.44,-1.14 1.94,-1.96 0.5,-0.82 0.87,-1.76 1.11,-2.83 0.24,-1.07 0.36,-2.17 0.36,-3.3 0,-1.13 -0.12,-2.31 -0.36,-3.38 -0.24,-1.07 -0.61,-2 -1.11,-2.81 -0.5,-0.8 -1.15,-1.44 -1.94,-1.92 -0.79,-0.47 -1.74,-0.71 -2.85,-0.71 -1.11,0 -2.06,0.24 -2.85,0.71 -0.79,0.48 -1.44,1.12 -1.94,1.92 -0.5,0.8 -0.87,1.74 -1.11,2.81 -0.24,1.07 -0.36,2.2 -0.36,3.38 z"
         id="path6"
         style="fill:#1d1d1b" />
      <path
         class="cls-1"
         d="m 66.03,53.09 h 7.36 v 27.62 h -7.36 z"
         id="path7"
         style="fill:#1d1d1b" />
      <path
         class="cls-1"
         d="m 1.54,101.83 c 0,-2.22 0.3,-4.21 0.89,-5.97 0.59,-1.77 1.47,-3.26 2.63,-4.49 1.16,-1.23 2.6,-2.17 4.33,-2.83 1.73,-0.66 3.72,-0.99 5.99,-0.99 2.27,0 4.27,0.33 5.99,0.99 1.72,0.66 3.17,1.6 4.33,2.83 1.16,1.23 2.04,2.72 2.63,4.49 0.59,1.77 0.89,3.76 0.89,5.97 0,2.21 -0.3,4.17 -0.89,5.93 -0.59,1.77 -1.48,3.27 -2.65,4.51 -1.17,1.24 -2.62,2.19 -4.35,2.85 -1.73,0.66 -3.71,0.99 -5.95,0.99 -2.24,0 -4.26,-0.33 -5.97,-0.99 -1.71,-0.66 -3.16,-1.61 -4.33,-2.85 -1.17,-1.24 -2.06,-2.74 -2.65,-4.51 -0.59,-1.77 -0.89,-3.75 -0.89,-5.93 z m 7.6,0 c 0,1.13 0.12,2.24 0.36,3.3 0.24,1.07 0.61,2.01 1.11,2.83 0.5,0.82 1.15,1.47 1.94,1.96 0.79,0.49 1.74,0.73 2.85,0.73 1.11,0 2.06,-0.24 2.85,-0.73 0.79,-0.49 1.44,-1.14 1.94,-1.96 0.5,-0.82 0.87,-1.76 1.11,-2.83 0.24,-1.07 0.36,-2.17 0.36,-3.3 0,-1.13 -0.12,-2.31 -0.36,-3.38 -0.24,-1.07 -0.61,-2 -1.11,-2.81 -0.5,-0.8 -1.15,-1.44 -1.94,-1.92 -0.79,-0.47 -1.74,-0.71 -2.85,-0.71 -1.11,0 -2.06,0.24 -2.85,0.71 -0.79,0.48 -1.44,1.12 -1.94,1.92 -0.5,0.8 -0.87,1.74 -1.11,2.81 -0.24,1.07 -0.36,2.2 -0.36,3.38 z"
         id="path8"
         style="fill:#1d1d1b" />
      <path
         class="cls-1"
         d="m 38.93,88.03 h 7.36 v 27.62 h -7.36 z"
         id="path9"
         style="fill:#1d1d1b" />
      <path
         class="cls-1"
         d="m 55.98,101.83 c 0,-2.22 0.3,-4.21 0.89,-5.97 0.59,-1.77 1.47,-3.26 2.63,-4.49 1.16,-1.23 2.6,-2.17 4.33,-2.83 1.73,-0.66 3.72,-0.99 5.99,-0.99 2.27,0 4.27,0.33 5.99,0.99 1.72,0.66 3.17,1.6 4.33,2.83 1.16,1.23 2.04,2.72 2.63,4.49 0.59,1.77 0.89,3.76 0.89,5.97 0,2.21 -0.3,4.17 -0.89,5.93 -0.59,1.77 -1.48,3.27 -2.65,4.51 -1.17,1.24 -2.62,2.19 -4.35,2.85 -1.73,0.66 -3.71,0.99 -5.95,0.99 -2.24,0 -4.26,-0.33 -5.97,-0.99 -1.71,-0.66 -3.16,-1.61 -4.33,-2.85 -1.17,-1.24 -2.06,-2.74 -2.65,-4.51 -0.59,-1.77 -0.89,-3.75 -0.89,-5.93 z m 7.6,0 c 0,1.13 0.12,2.24 0.36,3.3 0.24,1.07 0.61,2.01 1.11,2.83 0.5,0.82 1.15,1.47 1.94,1.96 0.79,0.49 1.74,0.73 2.85,0.73 1.11,0 2.06,-0.24 2.85,-0.73 0.79,-0.49 1.44,-1.14 1.94,-1.96 0.5,-0.82 0.87,-1.76 1.11,-2.83 0.24,-1.07 0.36,-2.17 0.36,-3.3 0,-1.13 -0.12,-2.31 -0.36,-3.38 -0.24,-1.07 -0.61,-2 -1.11,-2.81 -0.5,-0.8 -1.15,-1.44 -1.94,-1.92 -0.79,-0.47 -1.74,-0.71 -2.85,-0.71 -1.11,0 -2.06,0.24 -2.85,0.71 -0.79,0.48 -1.44,1.12 -1.94,1.92 -0.5,0.8 -0.87,1.74 -1.11,2.81 -0.24,1.07 -0.36,2.2 -0.36,3.38 z"
         id="path10"
         style="fill:#1d1d1b" />
    </g>
    <path
       d="m 182.57,50.88 c 0,-2.01 -0.03,-3.98 -0.08,-5.85 -0.06,-1.88 -0.12,-3.05 -0.18,-3.5 h 6.83 c 0,0.14 0.06,0.97 0.18,2.45 0.12,1.48 0.17,2.94 0.17,4.36 h 0.17 c 1.57,-2.62 3.55,-4.56 5.96,-5.81 2.41,-1.25 5.33,-1.88 8.71,-1.88 4.07,0 7.45,1.02 10.15,3.07 2.71,2.07 4.71,4.85 6,8.39 1.29,3.54 1.94,7.62 1.94,12.23 0,4.61 -0.66,8.69 -1.98,12.33 -1.33,3.64 -3.38,6.54 -6.16,8.68 -2.76,2.13 -6.22,3.2 -10.38,3.2 -3.1,0 -5.95,-0.63 -8.56,-1.9 -2.59,-1.27 -4.51,-3.11 -5.69,-5.54 h -0.25 c 0.03,0.09 0.05,0.84 0.09,2.25 0.05,1.39 0.06,2.87 0.06,4.41 v 18.07 h -7 V 50.87 Z m 20.19,31.66 c 4.09,0 7.16,-1.61 9.23,-4.85 2.05,-3.23 3.09,-7.62 3.09,-13.17 0,-5.55 -1.02,-9.66 -3.03,-12.84 -2.04,-3.19 -5.1,-4.78 -9.2,-4.78 -3.78,0 -6.93,1.38 -9.48,4.16 -2.53,2.78 -3.8,7.49 -3.8,14.11 0,5.9 1.21,10.25 3.63,13.1 2.41,2.84 5.6,4.27 9.57,4.27 v 0 z m 42.71,5.92 c -4.85,0 -8.56,-1.21 -11.1,-3.61 -2.56,-2.4 -3.82,-5.71 -3.82,-9.91 0,-5.1 1.95,-8.74 5.87,-10.92 3.9,-2.21 8.88,-3.34 14.91,-3.42 l 10.06,-0.18 v -2.81 c 0,-3.41 -0.92,-6.08 -2.75,-8.02 -1.83,-1.92 -4.44,-2.9 -7.82,-2.9 -2.7,0 -5.12,0.53 -7.24,1.56 -2.14,1.03 -4.39,2.8 -6.75,5.27 L 232.39,49 c 2.08,-2.43 4.66,-4.39 7.75,-5.94 3.09,-1.52 6.67,-2.3 10.78,-2.3 3.67,0 6.8,0.67 9.42,2.03 2.62,1.36 4.6,3.25 5.95,5.69 1.36,2.45 2.03,5.25 2.03,8.44 v 20.82 c 0,3.76 0.12,7.07 0.34,9.94 h -6.74 c -0.22,-2.16 -0.34,-4.57 -0.34,-7.26 h -0.18 c -1.78,2.66 -3.91,4.66 -6.38,6.02 -2.45,1.36 -5.63,2.03 -9.54,2.03 v 0 z m 1.59,-5.92 c 3.02,0 5.62,-0.59 7.77,-1.78 2.17,-1.17 3.8,-2.71 4.91,-4.58 1.1,-1.88 1.65,-3.85 1.65,-5.9 v -4.35 l -8.48,0.17 c -4.58,0.09 -8.25,0.79 -10.99,2.12 -2.75,1.32 -4.12,3.59 -4.12,6.82 0,2.3 0.81,4.13 2.43,5.47 1.61,1.36 3.91,2.04 6.83,2.04 v 0 z m 32.69,-31.32 c 0,-1.67 -0.03,-3.63 -0.08,-5.84 -0.08,-2.23 -0.14,-3.51 -0.18,-3.85 h 6.55 c 0.05,0.3 0.13,1.42 0.19,3.38 0.09,1.96 0.14,3.52 0.14,4.66 h 0.17 c 1.59,-2.96 3.54,-5.19 5.83,-6.67 2.31,-1.5 5.32,-2.25 9.01,-2.25 4.94,0 8.61,1.47 11,4.4 2.41,2.93 3.6,6.93 3.6,12.03 v 30.58 h -6.96 V 58.41 c 0,-3.7 -0.79,-6.56 -2.35,-8.53 -1.57,-2 -4.11,-2.99 -7.64,-2.99 -2.45,0 -4.61,0.54 -6.47,1.64 -1.86,1.1 -3.3,2.69 -4.32,4.79 -1.02,2.08 -1.52,4.56 -1.52,7.44 v 26.92 h -6.97 z m 63.8,37.33 c -4.13,0 -7.58,-0.98 -10.33,-2.93 -2.76,-1.94 -4.82,-4.67 -6.17,-8.21 -1.36,-3.52 -2.03,-7.67 -2.03,-12.41 0,-4.74 0.71,-9.01 2.16,-12.57 1.45,-3.56 3.6,-6.35 6.48,-8.34 2.9,-2 6.45,-2.99 10.69,-2.99 3.02,0 5.72,0.63 8.11,1.9 2.39,1.27 4.2,3.11 5.42,5.54 h 0.09 c -0.06,-0.52 -0.09,-2.47 -0.09,-5.86 V 24.5 h 7.1 v 53.75 c 0,5.14 0.05,8.29 0.15,9.42 h -6.74 c -0.08,-0.39 -0.17,-1.34 -0.23,-2.83 -0.08,-1.5 -0.1,-2.93 -0.1,-4.32 h -0.18 c -1.41,2.69 -3.34,4.67 -5.8,6.02 -2.44,1.34 -5.29,2.01 -8.53,2.01 z m 1.05,-6.2 c 4.07,0 7.31,-1.43 9.69,-4.32 2.39,-2.88 3.58,-7.47 3.58,-13.76 0,-6.29 -1.15,-10.35 -3.47,-13.06 -2.32,-2.7 -5.41,-4.04 -9.28,-4.04 -4.32,0 -7.53,1.51 -9.63,4.54 -2.08,3.02 -3.12,7.38 -3.12,13.08 0,5.7 0.98,9.82 2.98,12.92 1.99,3.11 5.09,4.65 9.26,4.65 v 0 z m 45.34,6.11 c -4.87,0 -8.57,-1.21 -11.11,-3.61 -2.56,-2.4 -3.82,-5.71 -3.82,-9.91 0,-5.1 1.96,-8.74 5.87,-10.92 3.9,-2.21 8.88,-3.34 14.91,-3.42 l 10.07,-0.18 v -2.81 c 0,-3.41 -0.92,-6.08 -2.76,-8.02 -1.83,-1.92 -4.44,-2.9 -7.81,-2.9 -2.71,0 -5.12,0.53 -7.26,1.56 -2.14,1.03 -4.39,2.8 -6.74,5.27 L 376.84,49 c 2.09,-2.43 4.66,-4.39 7.76,-5.94 3.09,-1.52 6.66,-2.3 10.77,-2.3 3.68,0 6.8,0.67 9.42,2.03 2.62,1.36 4.61,3.25 5.96,5.69 1.36,2.45 2.03,5.25 2.03,8.44 v 20.82 c 0,3.76 0.12,7.07 0.34,9.94 h -6.75 c -0.22,-2.16 -0.34,-4.57 -0.34,-7.26 h -0.17 c -1.79,2.66 -3.92,4.66 -6.38,6.02 -2.47,1.36 -5.64,2.03 -9.54,2.03 v 0 z m 1.59,-5.92 c 3.01,0 5.6,-0.59 7.76,-1.78 2.17,-1.17 3.8,-2.71 4.91,-4.58 1.11,-1.88 1.67,-3.85 1.67,-5.9 v -4.35 l -8.49,0.17 c -4.57,0.09 -8.25,0.79 -10.99,2.12 -2.75,1.32 -4.12,3.59 -4.12,6.82 0,2.3 0.81,4.13 2.44,5.47 1.61,1.36 3.9,2.04 6.83,2.04 v 0 z"
       id="path11" />
    <path
       d="m 442.28,36.43 c -2.09,0 -3.74,-0.57 -4.98,-1.7 -1.24,-1.13 -1.85,-2.63 -1.85,-4.48 0,-1.85 0.61,-3.38 1.85,-4.52 1.24,-1.15 2.89,-1.72 4.98,-1.72 2.09,0 3.67,0.57 4.89,1.72 1.23,1.14 1.83,2.63 1.83,4.52 0,1.89 -0.61,3.3 -1.85,4.45 -1.24,1.15 -2.87,1.73 -4.88,1.73 v 0 z m -19.41,6.12 h 25.07 V 88.69 H 436.5 V 51.64 h -13.63 z m 58.21,46.14 c -5.07,0 -9.37,-0.99 -12.9,-2.98 -3.52,-2 -6.17,-4.76 -7.95,-8.34 -1.77,-3.55 -2.66,-7.67 -2.66,-12.35 0,-5.16 0.97,-9.54 2.94,-13.17 1.96,-3.64 4.72,-6.38 8.3,-8.25 3.56,-1.86 7.73,-2.79 12.51,-2.79 4.3,0 7.95,0.81 10.96,2.45 3.02,1.64 5.54,3.96 7.55,6.98 l -8.02,5.59 c -1.39,-1.88 -2.88,-3.32 -4.48,-4.34 -1.59,-1.01 -3.6,-1.52 -6.02,-1.52 -3.81,0 -6.7,1.25 -8.7,3.78 -1.99,2.52 -2.98,6.09 -2.98,10.73 0,4.64 1.02,8.43 3.07,11.04 2.04,2.61 4.96,3.91 8.7,3.91 2.44,0 4.58,-0.52 6.42,-1.56 1.83,-1.03 3.77,-2.53 5.82,-4.48 l 6.82,6.84 c -2.27,2.58 -5.03,4.66 -8.26,6.17 -3.25,1.52 -6.96,2.28 -11.13,2.28 v 0 z m 47.96,0.78 c -4.23,0 -7.54,-1.11 -9.9,-3.33 -2.36,-2.22 -3.54,-5.45 -3.54,-9.69 V 51.64 h -11.26 v -9.09 h 11.52 l 0.71,-10.06 10.55,-0.68 v 10.74 h 14.77 v 9.09 h -14.77 v 22.04 c 0,2.23 0.45,3.86 1.34,4.89 0.9,1.05 2.31,1.56 4.25,1.56 1.54,0 3.18,-0.17 4.94,-0.52 1.77,-0.34 3.4,-0.83 4.87,-1.48 l 0.85,9 c -2.62,0.81 -4.94,1.42 -7.02,1.79 -2.07,0.36 -4.49,0.56 -7.31,0.56 v 0 z"
       id="path12" />
  </g>
</svg>
