<?xml version="1.0" encoding="UTF-8"?>
<svg id="Ebene_2" xmlns="http://www.w3.org/2000/svg" viewBox="0 0 543.37 125.53">
  <defs>
    <style>
      .cls-1 {
        fill: #1d1d1b;
      }

      .cls-2 {
        fill: none;
        fill-rule: evenodd;
      }
    </style>
  </defs>
  <g id="Ebene_1-2" data-name="Ebene_1">
    <path class="cls-2" d="M149.03,59.69c0,32.23-26.13,58.35-58.35,58.35s-58.35-26.13-58.35-58.35S58.45,1.34,90.68,1.34s58.35,26.13,58.35,58.35Z"/>
    <g>
      <path class="cls-1" d="M92.14,0c-23.82-.03-36.06,10.27-46.61,22.32,0,0,12.72-4.5,25.96-2.8-1.72.03-9.31-.4-26.25,10.28l8.45,8.06c6.41-11.15,14.88-16.61,17.13-17.61.96-.2,1.97-.36,3.08-.48-4.54,5.45-6.72,13.8-5.35,15.72.54.75,1.43,1,2.56.91,2.46-.19,6.07-1.96,9.77-3.6,3.93-1.74,10.2,1.16,9.24-7.39-.19-1.69-.52-3.22-.98-4.57-.95-2.77-2.44-4.74-4.42-5.57,2.98.07,5.19,2.31,6.44,5.93,5.6,1,10.71,2.17,15.22,3.8.43.18,1.32.53,2.37.96.37.15.76.31,1.16.48,1.73.73,3.58,1.55,4.51,2.1,1.99,1.19,5.01,3.31,5.01,3.31,0,0,7.53-4.34-.56-14.94-.06-.07-.11-.13-.17-.2.72.46,1.46,1.15,2.24,2.16,8.09,10.61-.19,15.5-.19,15.5,0,0-.11-.1-.29-.27,1.1,1.29,2.1,2.71,2.98,4.28,6.79,12.15,5.43,16.77,5.24,22.18h0c-.4-4.31-.48-8.07-1.8-6.52-1.32,1.55-1.33,4.21-.55,8.37.86-.03,1.73,1.25,1.99,2.96.21,1.41-.07,2.66-.63,3.18,1.04,4.35,1.46,5.39,2.59,5.63.03,0,.05-.01.08,0,1.21,4.62,2.62,7.71,2.62,7.71,0,0,.03.04.07.12-.23-.13-.67-.06-1.44.37-2.72,1.53-2.85.82-5.53,0-2.68-.83-5.64-1.54-6.02.49-.6,3.16,2.8,3.13,4.79,4.3,1.99,1.19-1.22,3.54-1.22,3.54l-4.3,1.86c-4.29,1.87-10.26-3.44-10.26-3.44,0,0,.53,2.13,4.3,4.95,3.76,2.82,10.83-.98,10.83-.98,0,0,1.33,1,2.5.53.7-.28,2.11-1.06,2.11-1.06,0,0-1.96-.42-2.35-.5-.39-.08,1.37-3.75,1.37-3.75,0,0,1.46-.58,3.46-2.68,1.01-1.07,1.77-2.28,1.92-3.02.17,1.2-.19,4.06-4.4,9.96-8.62,12.07-19.29,6.71-21.7,4.8,0,0,2.43,6.84,1.99,15.15,20.87-5.09,39.92-26.99,39.96-54.85C149.07,27.66,124.03.04,92.14,0Z"/>
      <path class="cls-1" d="M114.35,61.2c-1.92-6.73-10.91-5.97-12.67-.93-2.72,7.76-1.6,12.86.04,15.17,2.83,3.99,6.87,2.48,8.39-.49,1.51-2.96,6.17-7.02,4.24-13.76ZM108.36,68.34c-1.34-.29-2.13-1.93-1.76-3.69.37-1.74,1.76-2.93,3.1-2.64,1.35.28,2.13,1.93,1.76,3.68-.37,1.75-1.76,2.93-3.11,2.65Z"/>
    </g>
    <path class="cls-1" d="M93.7,115.88c2.01.05,4.45-.52,7.24-.78,1.35-4.54,1.91-12.52,1.98-15.84l1.53-1.14s-5.57-.1-11.21-2.56c-.46-.2-1.42.55-4.16-.15,1.13,3.01,3.08,11.94,3.58,14.28l1.04,6.18Z"/>
    <g>
      <path class="cls-1" d="M11.59,53.09h7.36v27.62h-7.36v-27.62Z"/>
      <path class="cls-1" d="M28.64,66.9c0-2.22.3-4.21.89-5.97.59-1.77,1.47-3.26,2.63-4.49,1.16-1.23,2.6-2.17,4.33-2.83,1.73-.66,3.72-.99,5.99-.99s4.27.33,5.99.99,3.17,1.6,4.33,2.83c1.16,1.23,2.04,2.72,2.63,4.49.59,1.77.89,3.76.89,5.97s-.3,4.17-.89,5.93c-.59,1.77-1.48,3.27-2.65,4.51-1.17,1.24-2.62,2.19-4.35,2.85-1.73.66-3.71.99-5.95.99s-4.26-.33-5.97-.99c-1.71-.66-3.16-1.61-4.33-2.85-1.17-1.24-2.06-2.74-2.65-4.51-.59-1.77-.89-3.75-.89-5.93ZM36.24,66.9c0,1.13.12,2.24.36,3.3.24,1.07.61,2.01,1.11,2.83.5.82,1.15,1.47,1.94,1.96.79.49,1.74.73,2.85.73s2.06-.24,2.85-.73c.79-.49,1.44-1.14,1.94-1.96.5-.82.87-1.76,1.11-2.83.24-1.07.36-2.17.36-3.3s-.12-2.31-.36-3.38-.61-2-1.11-2.81c-.5-.8-1.15-1.44-1.94-1.92-.79-.47-1.74-.71-2.85-.71s-2.06.24-2.85.71c-.79.48-1.44,1.12-1.94,1.92-.5.8-.87,1.74-1.11,2.81s-.36,2.2-.36,3.38Z"/>
      <path class="cls-1" d="M66.03,53.09h7.36v27.62h-7.36v-27.62Z"/>
      <path class="cls-1" d="M1.54,101.83c0-2.22.3-4.21.89-5.97.59-1.77,1.47-3.26,2.63-4.49,1.16-1.23,2.6-2.17,4.33-2.83,1.73-.66,3.72-.99,5.99-.99s4.27.33,5.99.99,3.17,1.6,4.33,2.83c1.16,1.23,2.04,2.72,2.63,4.49.59,1.77.89,3.76.89,5.97s-.3,4.17-.89,5.93c-.59,1.77-1.48,3.27-2.65,4.51-1.17,1.24-2.62,2.19-4.35,2.85-1.73.66-3.71.99-5.95.99s-4.26-.33-5.97-.99c-1.71-.66-3.16-1.61-4.33-2.85-1.17-1.24-2.06-2.74-2.65-4.51-.59-1.77-.89-3.75-.89-5.93ZM9.14,101.83c0,1.13.12,2.24.36,3.3.24,1.07.61,2.01,1.11,2.83.5.82,1.15,1.47,1.94,1.96.79.49,1.74.73,2.85.73s2.06-.24,2.85-.73c.79-.49,1.44-1.14,1.94-1.96.5-.82.87-1.76,1.11-2.83.24-1.07.36-2.17.36-3.3s-.12-2.31-.36-3.38-.61-2-1.11-2.81c-.5-.8-1.15-1.44-1.94-1.92-.79-.47-1.74-.71-2.85-.71s-2.06.24-2.85.71c-.79.48-1.44,1.12-1.94,1.92-.5.8-.87,1.74-1.11,2.81s-.36,2.2-.36,3.38Z"/>
      <path class="cls-1" d="M38.93,88.03h7.36v27.62h-7.36v-27.62Z"/>
      <path class="cls-1" d="M55.98,101.83c0-2.22.3-4.21.89-5.97.59-1.77,1.47-3.26,2.63-4.49,1.16-1.23,2.6-2.17,4.33-2.83,1.73-.66,3.72-.99,5.99-.99s4.27.33,5.99.99,3.17,1.6,4.33,2.83c1.16,1.23,2.04,2.72,2.63,4.49.59,1.77.89,3.76.89,5.97s-.3,4.17-.89,5.93c-.59,1.77-1.48,3.27-2.65,4.51-1.17,1.24-2.62,2.19-4.35,2.85-1.73.66-3.71.99-5.95.99s-4.26-.33-5.97-.99c-1.71-.66-3.16-1.61-4.33-2.85-1.17-1.24-2.06-2.74-2.65-4.51-.59-1.77-.89-3.75-.89-5.93ZM63.58,101.83c0,1.13.12,2.24.36,3.3.24,1.07.61,2.01,1.11,2.83.5.82,1.15,1.47,1.94,1.96.79.49,1.74.73,2.85.73s2.06-.24,2.85-.73c.79-.49,1.44-1.14,1.94-1.96.5-.82.87-1.76,1.11-2.83.24-1.07.36-2.17.36-3.3s-.12-2.31-.36-3.38-.61-2-1.11-2.81c-.5-.8-1.15-1.44-1.94-1.92-.79-.47-1.74-.71-2.85-.71s-2.06.24-2.85.71c-.79.48-1.44,1.12-1.94,1.92-.5.8-.87,1.74-1.11,2.81s-.36,2.2-.36,3.38Z"/>
    </g>
    <path d="M182.57,50.88c0-2.01-.03-3.98-.08-5.85-.06-1.88-.12-3.05-.18-3.5h6.83c0,.14.06.97.18,2.45.12,1.48.17,2.94.17,4.36h.17c1.57-2.62,3.55-4.56,5.96-5.81,2.41-1.25,5.33-1.88,8.71-1.88,4.07,0,7.45,1.02,10.15,3.07,2.71,2.07,4.71,4.85,6,8.39s1.94,7.62,1.94,12.23-.66,8.69-1.98,12.33c-1.33,3.64-3.38,6.54-6.16,8.68-2.76,2.13-6.22,3.2-10.38,3.2-3.1,0-5.95-.63-8.56-1.9-2.59-1.27-4.51-3.11-5.69-5.54h-.25c.03.09.05.84.09,2.25.05,1.39.06,2.87.06,4.41v18.07h-7v-54.97ZM202.76,82.54c4.09,0,7.16-1.61,9.23-4.85,2.05-3.23,3.09-7.62,3.09-13.17s-1.02-9.66-3.03-12.84c-2.04-3.19-5.1-4.78-9.2-4.78-3.78,0-6.93,1.38-9.48,4.16-2.53,2.78-3.8,7.49-3.8,14.11,0,5.9,1.21,10.25,3.63,13.1,2.41,2.84,5.6,4.27,9.57,4.27h0ZM245.47,88.46c-4.85,0-8.56-1.21-11.1-3.61-2.56-2.4-3.82-5.71-3.82-9.91,0-5.1,1.95-8.74,5.87-10.92,3.9-2.21,8.88-3.34,14.91-3.42l10.06-.18v-2.81c0-3.41-.92-6.08-2.75-8.02-1.83-1.92-4.44-2.9-7.82-2.9-2.7,0-5.12.53-7.24,1.56-2.14,1.03-4.39,2.8-6.75,5.27l-4.44-4.52c2.08-2.43,4.66-4.39,7.75-5.94,3.09-1.52,6.67-2.3,10.78-2.3,3.67,0,6.8.67,9.42,2.03,2.62,1.36,4.6,3.25,5.95,5.69,1.36,2.45,2.03,5.25,2.03,8.44v20.82c0,3.76.12,7.07.34,9.94h-6.74c-.22-2.16-.34-4.57-.34-7.26h-.18c-1.78,2.66-3.91,4.66-6.38,6.02-2.45,1.36-5.63,2.03-9.54,2.03h0ZM247.06,82.54c3.02,0,5.62-.59,7.77-1.78,2.17-1.17,3.8-2.71,4.91-4.58,1.1-1.88,1.65-3.85,1.65-5.9v-4.35l-8.48.17c-4.58.09-8.25.79-10.99,2.12-2.75,1.32-4.12,3.59-4.12,6.82,0,2.3.81,4.13,2.43,5.47,1.61,1.36,3.91,2.04,6.83,2.04h0ZM279.75,51.22c0-1.67-.03-3.63-.08-5.84-.08-2.23-.14-3.51-.18-3.85h6.55c.05.3.13,1.42.19,3.38.09,1.96.14,3.52.14,4.66h.17c1.59-2.96,3.54-5.19,5.83-6.67,2.31-1.5,5.32-2.25,9.01-2.25,4.94,0,8.61,1.47,11,4.4,2.41,2.93,3.6,6.93,3.6,12.03v30.58h-6.96v-29.25c0-3.7-.79-6.56-2.35-8.53-1.57-2-4.11-2.99-7.64-2.99-2.45,0-4.61.54-6.47,1.64-1.86,1.1-3.3,2.69-4.32,4.79-1.02,2.08-1.52,4.56-1.52,7.44v26.92h-6.97v-36.46ZM343.55,88.55c-4.13,0-7.58-.98-10.33-2.93-2.76-1.94-4.82-4.67-6.17-8.21-1.36-3.52-2.03-7.67-2.03-12.41s.71-9.01,2.16-12.57,3.6-6.35,6.48-8.34c2.9-2,6.45-2.99,10.69-2.99,3.02,0,5.72.63,8.11,1.9,2.39,1.27,4.2,3.11,5.42,5.54h.09c-.06-.52-.09-2.47-.09-5.86v-18.18h7.1v53.75c0,5.14.05,8.29.15,9.42h-6.74c-.08-.39-.17-1.34-.23-2.83-.08-1.5-.1-2.93-.1-4.32h-.18c-1.41,2.69-3.34,4.67-5.8,6.02-2.44,1.34-5.29,2.01-8.53,2.01h0ZM344.6,82.35c4.07,0,7.31-1.43,9.69-4.32,2.39-2.88,3.58-7.47,3.58-13.76s-1.15-10.35-3.47-13.06c-2.32-2.7-5.41-4.04-9.28-4.04-4.32,0-7.53,1.51-9.63,4.54-2.08,3.02-3.12,7.38-3.12,13.08s.98,9.82,2.98,12.92c1.99,3.11,5.09,4.65,9.26,4.65h0ZM389.94,88.46c-4.87,0-8.57-1.21-11.11-3.61-2.56-2.4-3.82-5.71-3.82-9.91,0-5.1,1.96-8.74,5.87-10.92,3.9-2.21,8.88-3.34,14.91-3.42l10.07-.18v-2.81c0-3.41-.92-6.08-2.76-8.02-1.83-1.92-4.44-2.9-7.81-2.9-2.71,0-5.12.53-7.26,1.56-2.14,1.03-4.39,2.8-6.74,5.27l-4.45-4.52c2.09-2.43,4.66-4.39,7.76-5.94,3.09-1.52,6.66-2.3,10.77-2.3,3.68,0,6.8.67,9.42,2.03s4.61,3.25,5.96,5.69c1.36,2.45,2.03,5.25,2.03,8.44v20.82c0,3.76.12,7.07.34,9.94h-6.75c-.22-2.16-.34-4.57-.34-7.26h-.17c-1.79,2.66-3.92,4.66-6.38,6.02-2.47,1.36-5.64,2.03-9.54,2.03h0ZM391.53,82.54c3.01,0,5.6-.59,7.76-1.78,2.17-1.17,3.8-2.71,4.91-4.58,1.11-1.88,1.67-3.85,1.67-5.9v-4.35l-8.49.17c-4.57.09-8.25.79-10.99,2.12-2.75,1.32-4.12,3.59-4.12,6.82,0,2.3.81,4.13,2.44,5.47,1.61,1.36,3.9,2.04,6.83,2.04h0Z"/>
    <path d="M442.28,36.43c-2.09,0-3.74-.57-4.98-1.7s-1.85-2.63-1.85-4.48.61-3.38,1.85-4.52c1.24-1.15,2.89-1.72,4.98-1.72s3.67.57,4.89,1.72c1.23,1.14,1.83,2.63,1.83,4.52s-.61,3.3-1.85,4.45-2.87,1.73-4.88,1.73h0ZM422.87,42.55h25.07v46.14h-11.44v-37.05h-13.63v-9.09ZM481.08,88.69c-5.07,0-9.37-.99-12.9-2.98-3.52-2-6.17-4.76-7.95-8.34-1.77-3.55-2.66-7.67-2.66-12.35,0-5.16.97-9.54,2.94-13.17,1.96-3.64,4.72-6.38,8.3-8.25,3.56-1.86,7.73-2.79,12.51-2.79,4.3,0,7.95.81,10.96,2.45,3.02,1.64,5.54,3.96,7.55,6.98l-8.02,5.59c-1.39-1.88-2.88-3.32-4.48-4.34-1.59-1.01-3.6-1.52-6.02-1.52-3.81,0-6.7,1.25-8.7,3.78-1.99,2.52-2.98,6.09-2.98,10.73s1.02,8.43,3.07,11.04c2.04,2.61,4.96,3.91,8.7,3.91,2.44,0,4.58-.52,6.42-1.56,1.83-1.03,3.77-2.53,5.82-4.48l6.82,6.84c-2.27,2.58-5.03,4.66-8.26,6.17-3.25,1.52-6.96,2.28-11.13,2.28h0ZM529.04,89.47c-4.23,0-7.54-1.11-9.9-3.33-2.36-2.22-3.54-5.45-3.54-9.69v-24.81h-11.26v-9.09h11.52l.71-10.06,10.55-.68v10.74h14.77v9.09h-14.77v22.04c0,2.23.45,3.86,1.34,4.89.9,1.05,2.31,1.56,4.25,1.56,1.54,0,3.18-.17,4.94-.52,1.77-.34,3.4-.83,4.87-1.48l.85,9c-2.62.81-4.94,1.42-7.02,1.79-2.07.36-4.49.56-7.31.56h0Z"/>
  </g>
</svg>